<svg width="40" height="40" viewBox="0 0 40 40" fill="none" xmlns="http://www.w3.org/2000/svg">
<path d="M20 -1.23303e-06C25.5354 -1.23303e-06 30.5051 2.22222 34.1414 5.85858C37.7778 9.49495 40 14.4646 40 20C40 25.5354 37.7778 30.5051 34.1414 34.1414C30.5051 37.7778 25.5354 40 20 40C14.4646 40 9.49495 37.7778 5.85859 34.1414C2.22222 30.5051 0 25.5354 0 20C0 14.4646 2.22222 9.49495 5.85859 5.85858C9.49495 2.26263 14.4646 -1.23303e-06 20 -1.23303e-06ZM33.0505 6.9899C29.697 3.63636 25.0909 1.57576 20 1.57576C14.9091 1.57576 10.303 3.63636 6.94949 6.9899C3.59596 10.3434 1.53535 14.9495 1.53535 20.0404C1.53535 25.1313 3.59596 29.7374 6.94949 33.0909C10.303 36.4444 14.9091 38.5051 20 38.5051C25.0909 38.5051 29.697 36.4444 33.0505 33.0909C36.404 29.7374 38.4646 25.1313 38.4646 20.0404C38.4646 14.9091 36.404 10.303 33.0505 6.9899Z" fill="#838383"/>
<path fill-rule="evenodd" clip-rule="evenodd" d="M6.26263 6.10101V4.44444C6.26263 3.67677 6.78788 3.47475 7.15152 3.47475C7.51515 3.47475 9.45454 3.47475 9.45454 3.47475V0H6.30303C2.78788 0 2.0202 2.58586 2.0202 4.28283V6.14141H1.23303e-06V8.60606V10.2222H2.0606C2.0606 14.8687 2.0606 20.4444 2.0606 20.4444H6.14141C6.14141 20.4444 6.14141 14.7879 6.14141 10.2222H9.17172L9.29293 8.60606L9.53535 6.14141H6.26263V6.10101Z" transform="translate(15.2727 9.81818)" fill="#838383"/>
</svg>
