<svg width="22" height="22" viewBox="0 0 22 22" fill="none" xmlns="http://www.w3.org/2000/svg">
<path fill-rule="evenodd" clip-rule="evenodd" d="M5.90903 11.0001C5.90903 8.17178 8.21206 5.86874 11.0403 5.86874C13.8686 5.86874 16.1717 8.17178 16.1717 11.0001C16.1717 13.8283 13.8686 16.1314 11.0403 16.1314C8.17165 16.1314 5.90903 13.8283 5.90903 11.0001ZM16.2929 0.979863H5.70701C3.12115 0.979863 0.979738 3.12128 0.979738 5.70714V16.293C0.979738 18.8788 3.12115 21.0203 5.70701 21.0203H16.2929C18.9191 21.0203 21.0201 18.8788 21.0201 16.293V5.70714C21.0605 3.08088 18.9191 0.979863 16.2929 0.979863ZM5.74742 2.15157H16.3333C18.3131 2.15157 19.8888 3.72734 19.8888 5.70714V16.293C19.8888 18.2728 18.3131 19.8486 16.3333 19.8486H5.74742C3.76762 19.8486 2.19186 18.2728 2.19186 16.293V5.70714C2.19186 3.76775 3.76762 2.15157 5.74742 2.15157ZM17.3838 3.64652C16.8181 3.64652 16.3333 4.13138 16.3333 4.69704C16.3333 5.2627 16.8181 5.74754 17.3838 5.74754C17.9494 5.74754 18.4343 5.2627 18.4343 4.69704C18.3939 4.13138 17.9494 3.64652 17.3838 3.64652ZM17.505 11.0001C17.505 7.4445 14.5959 4.53541 11.0403 4.53541C7.48479 4.53541 4.57569 7.4445 4.57569 11.0001C4.57569 14.596 7.48479 17.4647 11.0403 17.4647C14.5959 17.4647 17.505 14.596 17.505 11.0001Z" fill="#2D9CD8" fill-opacity="0.6"/>
</svg>
