<svg width="40" height="40" viewBox="0 0 40 40" fill="none" xmlns="http://www.w3.org/2000/svg">
<path d="M20 0C25.5354 0 30.5455 2.22222 34.1414 5.85859C37.7778 9.49495 40 14.4646 40 20C40 25.5354 37.7778 30.5051 34.1414 34.1414C30.5455 37.7778 25.5354 40 20 40C14.4646 40 9.49495 37.7778 5.85859 34.1414C2.22222 30.5051 2.46607e-06 25.5354 2.46607e-06 20C2.46607e-06 14.4646 2.22222 9.49495 5.85859 5.85859C9.49495 2.22222 14.5051 0 20 0ZM33.0505 6.9495C29.697 3.59596 25.0909 1.53535 20 1.53535C14.9091 1.53535 10.303 3.59596 6.9495 6.9495C3.63636 10.303 1.57576 14.9091 1.57576 20C1.57576 25.0909 3.63636 29.697 6.9899 33.0505C10.3434 36.404 14.9495 38.4647 20.0404 38.4647C25.1313 38.4647 29.7374 36.404 33.0909 33.0505C36.4444 29.697 38.505 25.0909 38.505 20C38.4646 14.9091 36.404 10.303 33.0505 6.9495Z" fill="#838383"/>
<path fill-rule="evenodd" clip-rule="evenodd" d="M4.92929 10.0202C4.92929 7.19192 7.23232 4.88888 10.0606 4.88888C12.8889 4.88888 15.1919 7.19192 15.1919 10.0202C15.1919 12.8485 12.8889 15.1515 10.0606 15.1515C7.19192 15.1515 4.92929 12.8485 4.92929 10.0202ZM15.3131 4.93213e-06H4.72727C2.14141 4.93213e-06 1.23303e-06 2.14142 1.23303e-06 4.72728V15.3131C1.23303e-06 17.899 2.14141 20.0404 4.72727 20.0404H15.3131C17.9394 20.0404 20.0404 17.899 20.0404 15.3131V4.72728C20.0808 2.10102 17.9394 4.93213e-06 15.3131 4.93213e-06ZM4.76768 1.17171H15.3535C17.3333 1.17171 18.9091 2.74748 18.9091 4.72728V15.3131C18.9091 17.2929 17.3333 18.8687 15.3535 18.8687H4.76768C2.78788 18.8687 1.21212 17.2929 1.21212 15.3131V4.72728C1.21212 2.78789 2.78788 1.17171 4.76768 1.17171ZM16.404 2.66666C15.8384 2.66666 15.3535 3.15153 15.3535 3.71718C15.3535 4.28284 15.8384 4.76768 16.404 4.76768C16.9697 4.76768 17.4545 4.28284 17.4545 3.71718C17.4141 3.15153 16.9697 2.66666 16.404 2.66666ZM16.5253 10.0202C16.5253 6.46465 13.6162 3.55556 10.0606 3.55556C6.50505 3.55556 3.59596 6.46465 3.59596 10.0202C3.59596 13.6162 6.50505 16.4848 10.0606 16.4848C13.6162 16.4848 16.5253 13.6162 16.5253 10.0202Z" transform="translate(9.97974 9.97986)" fill="#838383"/>
</svg>
