<svg width="40" height="40" viewBox="0 0 40 40" fill="none" xmlns="http://www.w3.org/2000/svg">
<path d="M21.1381 40C20.3552 40 19.5724 40 18.7895 40C18.0457 39.8984 17.2941 39.8281 16.5504 39.6953C8.58052 38.3125 2.30954 32.4141 0.454078 24.5547C0.266184 23.7734 0.14875 22.9766 0 22.1875C0 20.7266 0 19.2734 0 17.8125C0.0234868 17.75 0.0548025 17.6953 0.0626315 17.6328C0.555855 13.5547 2.14513 9.95312 4.86177 6.85937C7.96986 3.32031 11.8608 1.13281 16.5112 0.304688C17.2628 0.171875 18.0301 0.101562 18.7895 -4.76837e-07C19.5724 -4.76837e-07 20.3552 -4.76837e-07 21.1381 -4.76837e-07C21.2477 0.023437 21.3652 0.0625002 21.4748 0.0703127C24.3402 0.265625 27.0333 1.0625 29.5464 2.4375C37.7433 6.9375 41.7126 16.2422 39.3013 25.2656C37.3206 32.6719 30.9635 38.4453 23.4164 39.6875C22.6648 39.8125 21.8975 39.8984 21.1381 40ZM38.4792 20C38.4792 9.86719 30.2197 1.59375 20.1674 1.52344C9.84881 1.45312 1.44835 9.77344 1.45618 20C1.45618 30.2031 9.73137 38.4688 19.9638 38.4766C30.1806 38.4766 38.4714 30.2031 38.4792 20Z" fill="#838383"/>
<path d="M8.36106 9.18134C7.0458 10.4938 5.76185 11.7751 4.48573 13.0563C4.04731 13.5017 3.52277 13.7126 2.89646 13.6188C2.20751 13.5173 1.71429 13.1345 1.47942 12.4782C1.24455 11.8298 1.34633 11.2126 1.80824 10.6892C2.16054 10.2907 2.55199 9.92353 2.9356 9.54853C4.13343 8.35322 5.33126 7.15791 6.52909 5.95478C6.62303 5.86103 6.70915 5.76728 6.83441 5.63447C6.36468 5.54853 5.94975 5.47822 5.54264 5.38447C3.72633 4.9704 2.05093 4.25166 0.610408 3.05634C-0.0863675 2.47822 -0.188144 1.50947 0.312908 0.767281C0.790474 0.0563438 1.75343 -0.217096 2.5285 0.189154C3.1783 0.525092 3.76547 0.970406 4.4231 1.26728C7.49205 2.65009 10.467 2.43915 13.3403 0.696967C13.5751 0.556342 13.8022 0.400094 14.0292 0.259469C14.7886 -0.201469 15.7751 -0.0217826 16.3153 0.665717C16.8711 1.37665 16.8633 2.43134 16.143 2.99384C15.4071 3.57978 14.5772 4.07197 13.7395 4.50166C12.6513 5.06416 11.4613 5.39228 10.24 5.55634C10.1382 5.57197 10.0365 5.59541 9.86422 5.63447C9.98948 5.76728 10.0834 5.86103 10.1774 5.95478C11.6962 7.47041 13.2228 8.98603 14.7416 10.5095C15.4932 11.2673 15.548 12.2985 14.8982 13.0329C14.2014 13.8142 13.0506 13.8454 12.2599 13.072C11.4143 12.2595 10.6001 11.4157 9.77027 10.5876C9.31619 10.1423 8.86211 9.67353 8.36106 9.18134Z" transform="translate(11.6028 20.0765)" fill="#838383"/>
<path d="M6.96776 -2.38419e-07C10.8039 -2.38419e-07 13.9433 3.11719 13.9512 6.94531C13.959 10.7891 10.8196 13.9219 6.95993 13.9141C3.10026 13.9062 0 10.8047 0 6.96094C0.00782894 3.11719 3.12375 0.00781226 6.96776 -2.38419e-07ZM6.98342 3.57031C5.12796 3.5625 3.59348 5.08594 3.57783 6.9375C3.56217 8.79688 5.10447 10.3516 6.96776 10.3594C8.82322 10.3672 10.3577 8.84375 10.3733 6.99219C10.3812 5.10938 8.86236 3.57812 6.98342 3.57031Z" transform="translate(12.9568 6.27344)" fill="#838383"/>
</svg>
