<svg width="18" height="28" viewBox="0 0 18 28" fill="none" xmlns="http://www.w3.org/2000/svg">
<path d="M8.96384 23.2578C7.64858 24.5703 6.36463 25.8516 5.08852 27.1328C4.6501 27.5781 4.12556 27.7891 3.49924 27.6953C2.8103 27.5938 2.31707 27.2109 2.0822 26.5547C1.84734 25.9063 1.94911 25.2891 2.41102 24.7656C2.76332 24.3672 3.15477 24 3.53839 23.625C4.73621 22.4297 5.93404 21.2344 7.13187 20.0313C7.22582 19.9375 7.31194 19.8438 7.4372 19.7109C6.96746 19.625 6.55253 19.5547 6.14542 19.4609C4.32911 19.0469 2.65372 18.3281 1.21319 17.1328C0.516416 16.5547 0.414639 15.5859 0.915692 14.8438C1.39326 14.1328 2.35622 13.8594 3.13128 14.2656C3.78108 14.6016 4.36825 15.0469 5.02589 15.3438C8.09483 16.7266 11.0698 16.5156 13.943 14.7734C14.1779 14.6328 14.405 14.4766 14.632 14.3359C15.3914 13.875 16.3778 14.0547 16.918 14.7422C17.4739 15.4531 17.4661 16.5078 16.7458 17.0703C16.0099 17.6563 15.18 18.1484 14.3423 18.5781C13.2541 19.1406 12.0641 19.4688 10.8428 19.6328C10.741 19.6484 10.6392 19.6719 10.467 19.7109C10.5923 19.8438 10.6862 19.9375 10.7802 20.0313C12.299 21.5469 13.8256 23.0625 15.3444 24.5859C16.096 25.3438 16.1508 26.375 15.501 27.1094C14.8042 27.8906 13.6534 27.9219 12.8627 27.1484C12.0171 26.3359 11.2029 25.4922 10.3731 24.6641C9.91897 24.2188 9.46489 23.75 8.96384 23.2578Z" fill="#2D9CD8" fill-opacity="0.6"/>
<path d="M8.92454 0.273438C12.7607 0.273438 15.9001 3.39063 15.908 7.21875C15.9158 11.0625 12.7764 14.1953 8.91671 14.1875C5.05705 14.1797 1.95679 11.0781 1.95679 7.23437C1.96462 3.39062 5.08053 0.28125 8.92454 0.273438ZM8.9402 3.84375C7.08474 3.83594 5.55027 5.35938 5.53461 7.21094C5.51895 9.07031 7.06126 10.625 8.92454 10.6328C10.78 10.6406 12.3145 9.11719 12.3301 7.26563C12.338 5.38281 10.8191 3.85156 8.9402 3.84375Z" fill="#2D9CD8" fill-opacity="0.6"/>
</svg>
