<svg width="24" height="14" viewBox="0 0 24 14" fill="none" xmlns="http://www.w3.org/2000/svg">
<path fill-rule="evenodd" clip-rule="evenodd" d="M23.0707 1.46471C22.7878 1.26269 21.6969 1.26269 20.6464 1.26269C19.5555 1.3031 18.4646 1.30309 18.2222 1.3839C17.9797 1.46471 17.4545 2.71723 16.808 4.05057C16.0404 5.50511 15.0707 6.91926 14.505 6.91926C13.7373 6.91926 13.8989 4.53541 13.9797 2.71723C13.9797 1.54551 13.8181 1.18188 13.6161 1.06067C13.2121 0.777843 12.0808 0.495005 12.0808 0.495005C12.0808 0.495005 8.68681 0.252581 8.20197 1.70713C8.84843 1.78793 9.97974 1.58592 9.5353 6.11118C9.4949 6.3132 9.01005 8.21218 7.43429 5.66673C7.03025 5.02027 5.5353 1.26269 5.01005 1.22229C3.27267 1.18188 1.5353 1.10107 0.929238 1.42431C0.363581 1.74754 1.69692 4.33339 3.91914 7.80814C5.73732 10.6768 7.63631 12.899 10.9494 13.4243C11.5959 13.5051 13.2121 13.5455 13.7373 13.3031C14.0605 13.1415 13.6565 10.6768 14.8282 10.4344C15.3535 10.3536 17.3737 13.0203 18.1414 13.3031C18.6262 13.5051 19.6363 13.5859 20.6868 13.5051C21.8181 13.4647 23.1111 13.6263 23.2323 12.8586C23.5151 11.1617 19.7979 8.93946 19.7171 7.88895C19.6363 7.12127 21.0504 5.74754 21.8181 4.69703C22.6666 3.48491 23.6363 1.94956 23.0707 1.46471Z" fill="#2D9CDB" fill-opacity="0.6"/>
</svg>
