<svg width="40" height="40" viewBox="0 0 40 40" fill="none" xmlns="http://www.w3.org/2000/svg">
<path d="M20 -2.46607e-06C25.5354 -2.46607e-06 30.5051 2.22222 34.1414 5.85858C37.7778 9.49495 40 14.505 40 20C40 25.5354 37.7778 30.505 34.1414 34.1414C30.5051 37.7778 25.5354 40 20 40C14.4646 40 9.49495 37.7778 5.85859 34.1414C2.22222 30.505 2.46607e-06 25.5354 2.46607e-06 20C2.46607e-06 14.4646 2.22222 9.49495 5.85859 5.85858C9.49495 2.26262 14.5051 -2.46607e-06 20 -2.46607e-06ZM33.0505 6.9899C29.697 3.63637 25.0909 1.57575 20 1.57575C14.9091 1.57575 10.303 3.63637 6.9495 6.9899C3.59596 10.3434 1.53535 14.9495 1.53535 20.0404C1.53535 25.1313 3.59596 29.7374 6.9495 33.0909C10.303 36.4444 14.9091 38.5051 20 38.5051C25.0909 38.5051 29.697 36.4444 33.0505 33.0909C36.404 29.7374 38.4646 25.1313 38.4646 20.0404C38.4646 14.9091 36.404 10.303 33.0505 6.9899Z" fill="#838383"/>
<path fill-rule="evenodd" clip-rule="evenodd" d="M22.2713 0.984853C21.9885 0.782833 20.8976 0.782833 19.8471 0.782833C18.7562 0.823237 17.6653 0.823232 17.4229 0.90404C17.1804 0.984848 16.6552 2.23738 16.0087 3.57071C15.241 5.02526 14.2713 6.4394 13.7057 6.4394C12.938 6.4394 13.0996 4.05555 13.1804 2.23737C13.1804 1.06565 13.0188 0.702025 12.8168 0.580813C12.4128 0.297985 11.2814 0.0151466 11.2814 0.0151466C11.2814 0.0151466 7.8875 -0.227278 7.40265 1.22727C8.04911 1.30808 9.18043 1.10607 8.73598 5.63132C8.69558 5.83334 8.21073 7.73233 6.63497 5.18687C6.23093 4.54041 4.73598 0.782831 4.21073 0.742427C2.47336 0.702023 0.735982 0.621215 0.129922 0.944447C-0.435735 1.26768 0.897602 3.85353 3.11982 7.32828C4.93801 10.197 6.83699 12.4192 10.1501 12.9444C10.7966 13.0252 12.4127 13.0657 12.938 12.8232C13.2612 12.6616 12.8572 10.197 14.0289 9.95454C14.5542 9.87373 16.5744 12.5404 17.342 12.8232C17.8269 13.0253 18.837 13.1061 19.8875 13.0253C21.0188 12.9848 22.3117 13.1465 22.433 12.3788C22.7158 10.6818 18.9986 8.4596 18.9178 7.40909C18.837 6.64142 20.2511 5.26768 21.0188 4.21718C21.8673 3.00506 22.837 1.4697 22.2713 0.984853Z" transform="translate(8.79932 13.4799)" fill="#838383"/>
</svg>
