<?xml version="1.0" encoding="utf-8"?>
<!-- Generator: Adobe Illustrator 19.1.0, SVG Export Plug-In . SVG Version: 6.00 Build 0)  -->
<svg version="1.1" id="Layer_1" xmlns="http://www.w3.org/2000/svg" xmlns:xlink="http://www.w3.org/1999/xlink" x="0px" y="0px"
	 viewBox="0 0 120 120" style="enable-background:new 0 0 120 120;" xml:space="preserve">
<style type="text/css">
	.st0{fill:#29A3DD;}
</style>
<path class="st0" d="M101.5,103.8c0,5.5-4.4,9.9-9.9,9.9c-5.5,0-9.9-4.4-9.9-9.9c0-5.5,4.4-9.9,9.9-9.9
	C97,93.9,101.5,98.3,101.5,103.8z M58.4,93.9c-5.5,0-9.9,4.4-9.9,9.9c0,5.5,4.4,9.9,9.9,9.9c5.5,0,9.9-4.4,9.9-9.9
	C68.3,98.3,63.8,93.9,58.4,93.9z M113.4,28.8h-76L30.4,9.3c-0.8-2.4-3.1-3.9-5.6-3.9H6.4c-7.8,0-7.8,11.9,0,11.9h14.2
	c7.5,21,13.6,41.2,20.2,62.7c0.8,2.5,3.1,4.2,5.7,4.2h56.8c2.8,0,5.2-1.9,5.8-4.6l10-43.5C120,32.3,117.2,28.8,113.4,28.8z
	 M60.2,66.2c0,2.7-2.2,5-5,5c-2.7,0-5-2.2-5-5V46.4c0-2.7,2.2-5,5-5c2.7,0,5,2.2,5,5V66.2z M79.9,66.2c0,2.7-2.2,5-5,5
	c-2.7,0-5-2.2-5-5V46.4c0-2.7,2.2-5,5-5c2.7,0,5,2.2,5,5V66.2z M99.5,66.2c0,2.7-2.2,5-5,5s-5-2.2-5-5V46.4c0-2.7,2.2-5,5-5
	s5,2.2,5,5V66.2z"/>
</svg>
